<svg width="100" height="100" viewBox="0 0 100 100" fill="none" xmlns="http://www.w3.org/2000/svg">
    <path
        d="M51.11 15.0601C50.7361 15.0594 50.3668 15.1426 50.0294 15.3035C49.6919 15.4645 49.3948 15.6991 49.16 15.9901L48.715 16.3201C40.09 13.6501 30.25 15.6101 23.4 22.2101C20.5315 24.932 18.3975 28.3348 17.1964 32.1024C15.9953 35.87 15.7661 39.8801 16.53 43.7601C16.4451 43.835 16.3618 43.9117 16.28 43.9901L12.385 47.7401C11.6316 48.4548 11.0315 49.3155 10.6215 50.2697C10.2115 51.2238 10 52.2515 10 53.2901C10 54.3286 10.2115 55.3563 10.6215 56.3104C11.0315 57.2646 11.6316 58.1253 12.385 58.8401C14.375 60.7601 17.135 61.4801 19.7 61.0001C20.015 62.4451 20.75 63.8201 21.915 64.9401C23.45 66.4201 25.445 67.1851 27.455 67.2401C27.51 69.1751 28.305 71.0951 29.84 72.5751C31.375 74.0551 33.375 74.8251 35.385 74.8751C35.435 76.8101 36.235 78.7351 37.77 80.215C39.2396 81.6097 41.1646 82.4247 43.1888 82.5093C45.213 82.5938 47.1993 81.9422 48.78 80.6751L50.965 82.7751C54.165 85.8601 59.355 85.8601 62.555 82.7751C64.085 81.3051 64.88 79.3951 64.95 77.4651C67.0053 77.4121 68.9667 76.5936 70.45 75.1701C71.98 73.6951 72.775 71.7851 72.835 69.8551C74.8671 69.7838 76.8018 68.9668 78.27 67.5601C79.485 66.3951 80.235 64.9501 80.525 63.4401C81.812 63.6657 83.134 63.586 84.3846 63.2074C85.6352 62.8288 86.7794 62.1617 87.725 61.2601C88.4792 60.5452 89.0799 59.6842 89.4905 58.7296C89.901 57.775 90.1127 56.7467 90.1127 55.7076C90.1127 54.6684 89.901 53.6401 89.4905 52.6855C89.0799 51.7309 88.4792 50.8699 87.725 50.1551L84.125 46.6901L84.86 43.9401C86.3468 38.3179 85.594 32.3382 82.76 27.2601C78.58 19.7301 70.47 15.0801 61.7 15.0801H55.55C55.2852 15.0669 55.0201 15.0603 54.755 15.0601H51.11ZM63.375 33.6401L75.4 45.2251L75.415 45.2351L84.12 53.6251C84.4028 53.8932 84.628 54.2162 84.7819 54.5742C84.9358 54.9322 85.0151 55.3179 85.0151 55.7076C85.0151 56.0973 84.9358 56.4829 84.7819 56.8409C84.628 57.199 84.4028 57.5219 84.12 57.7901C83.5359 58.3432 82.762 58.6515 81.9575 58.6515C81.153 58.6515 80.3791 58.3432 79.795 57.7901L73.19 51.4301C72.7059 50.9656 72.0609 50.7062 71.39 50.7062C70.7191 50.7062 70.0742 50.9656 69.59 51.4301L69.52 51.4901C69.2843 51.7134 69.0965 51.9824 68.9682 52.2807C68.8399 52.579 68.7738 52.9003 68.7738 53.2251C68.7738 53.5498 68.8399 53.8711 68.9682 54.1694C69.0965 54.4677 69.2843 54.7367 69.52 54.9601L74.67 59.9201C75.87 61.0701 75.87 62.9401 74.67 64.0951C74.139 64.5983 73.4493 64.901 72.7194 64.9511C71.9895 65.0013 71.2649 64.7959 70.67 64.3701C70.1735 64.0113 69.567 63.8379 68.9559 63.8799C68.3448 63.9219 67.7678 64.1767 67.325 64.6001C66.8923 65.0138 66.6311 65.5751 66.5931 66.1725C66.5551 66.77 66.7432 67.3599 67.12 67.8251C67.5689 68.3873 67.7902 69.0975 67.7402 69.8152C67.6902 70.5328 67.3725 71.2055 66.85 71.7001C66.3114 72.2108 65.6098 72.515 64.8688 72.5589C64.1278 72.6028 63.3952 72.3836 62.8 71.9401C62.306 71.5695 61.6969 71.3853 61.0803 71.4201C60.4638 71.4548 59.8793 71.7063 59.43 72.1301C58.9917 72.5432 58.7259 73.1068 58.686 73.7078C58.6461 74.3088 58.8351 74.9027 59.215 75.3701C59.6744 75.9398 59.9022 76.6617 59.8531 77.3919C59.804 78.1221 59.4815 78.807 58.95 79.3101C58.3582 79.8717 57.5734 80.1848 56.7575 80.1848C55.9416 80.1848 55.1568 79.8717 54.565 79.3101L52.4 77.2251L53.19 76.4651C53.9443 75.7502 54.545 74.8892 54.9555 73.9346C55.366 72.98 55.5777 71.9517 55.5777 70.9126C55.5777 69.8734 55.366 68.8451 54.9555 67.8905C54.545 66.9359 53.9443 66.0749 53.19 65.3601C51.6957 63.9279 49.7192 63.1074 47.65 63.0601C47.5893 61.0354 46.7323 59.1165 45.265 57.7201C43.7687 56.2886 41.7903 55.4698 39.72 55.4251C39.6593 53.4004 38.8023 51.4815 37.335 50.0851C36.3745 49.1708 35.2099 48.4985 33.9379 48.1237C32.6658 47.749 31.3228 47.6826 30.02 47.9301C29.6904 46.4255 28.9192 45.0536 27.805 43.9901C26.9509 43.175 25.9332 42.5511 24.8194 42.1597C23.7056 41.7683 22.5212 41.6185 21.345 41.7201C20.9511 38.7901 21.2578 35.8086 22.24 33.0202C23.2222 30.2319 24.8518 27.7163 26.995 25.6801C29.1607 23.611 31.7573 22.0467 34.5987 21.0993C37.4401 20.1519 40.456 19.8448 43.43 20.2001L36.155 25.5501C35.2242 26.2264 34.4401 27.0844 33.8501 28.0722C33.2601 29.06 32.8764 30.1571 32.7222 31.2974C32.568 32.4376 32.6464 33.5972 32.9529 34.7063C33.2593 35.8153 33.7873 36.8508 34.505 37.7501C35.9565 39.5701 38.0539 40.7603 40.3607 41.0733C42.6675 41.3862 45.0061 40.7976 46.89 39.4301L54.77 33.6451H63.37L63.375 33.6401ZM39.115 29.5751L52.075 20.0601H54.755C55.0002 20.0588 55.2453 20.0654 55.49 20.0801H61.7C68.72 20.0801 75.125 23.8051 78.39 29.6901C80.6 33.6701 81.18 38.2951 80.025 42.6601L80.01 42.7101L66.21 29.3751C65.7423 28.9059 65.1075 28.6415 64.445 28.6401H53.945C53.4143 28.6411 52.8977 28.8109 52.47 29.1251L43.93 35.3951C43.0912 35.9957 42.0545 36.2532 41.0321 36.1147C40.0097 35.9762 39.0788 35.4522 38.43 34.6501C38.1277 34.2776 37.9047 33.8472 37.775 33.3853C37.6452 32.9235 37.6114 32.4399 37.6756 31.9645C37.7397 31.4891 37.9006 31.0318 38.1481 30.6209C38.3957 30.2099 38.7247 29.854 39.115 29.5751ZM41.325 72.6251L41.375 72.5751L45.265 68.8251L45.31 68.7851C45.8974 68.251 46.665 67.9588 47.4589 67.9671C48.2527 67.9755 49.014 68.2837 49.59 68.8301C49.8728 69.0982 50.098 69.4212 50.2519 69.7792C50.4058 70.1372 50.4852 70.5229 50.4852 70.9126C50.4852 71.3023 50.4058 71.6879 50.2519 72.0459C50.098 72.404 49.8728 72.7269 49.59 72.9951L45.695 76.7451C45.1109 77.2982 44.337 77.6065 43.5325 77.6065C42.728 77.6065 41.9541 77.2982 41.37 76.7451C41.091 76.4809 40.8678 76.1634 40.7137 75.8113C40.5597 75.4593 40.4779 75.0799 40.4733 74.6956C40.4686 74.3114 40.5411 73.9301 40.6866 73.5744C40.832 73.2188 41.0524 72.8959 41.325 72.6251ZM41.71 65.3151L41.66 65.3601L37.77 69.1101L37.72 69.1551C37.1323 69.687 36.3654 69.9774 35.5727 69.9682C34.7801 69.9589 34.0201 69.6506 33.445 69.1051C33.1654 68.8397 32.9421 68.5208 32.7884 68.1673C32.6348 67.8138 32.5539 67.4329 32.5506 67.0475C32.5474 66.662 32.6218 66.2799 32.7694 65.9238C32.9171 65.5678 33.1349 65.2451 33.41 64.9751L33.445 64.9401L37.335 61.1901L37.37 61.1551C37.9567 60.6168 38.7257 60.321 39.5219 60.3275C40.3181 60.334 41.0822 60.6423 41.66 61.1901C41.9399 61.4543 42.1637 61.7721 42.3182 62.1246C42.4727 62.4771 42.5547 62.8571 42.5594 63.242C42.564 63.6268 42.4912 64.0087 42.3453 64.3648C42.1994 64.721 41.9834 65.0441 41.71 65.3151ZM33.735 57.7201L29.84 61.4701L29.805 61.5051C29.2183 62.0434 28.4493 62.3391 27.6531 62.3326C26.8569 62.3261 26.0928 62.0179 25.515 61.4701C25.2322 61.2019 25.007 60.879 24.8531 60.5209C24.6993 60.1629 24.6199 59.7773 24.6199 59.3876C24.6199 58.9978 24.6993 58.6122 24.8531 58.2542C25.007 57.8962 25.2322 57.5732 25.515 57.3051L29.405 53.5551C29.9894 53.0004 30.7643 52.6912 31.57 52.6912C32.3757 52.6912 33.1506 53.0004 33.735 53.5551C34.0154 53.8205 34.2394 54.1397 34.3935 54.4937C34.5476 54.8476 34.6287 55.2291 34.632 55.6151C34.6353 56.0012 34.5606 56.3839 34.4125 56.7404C34.2644 57.097 34.0459 57.42 33.77 57.6901L33.735 57.7201ZM24.205 51.6251L20.315 55.3751C19.7312 55.9308 18.9561 56.2408 18.15 56.2408C17.344 56.2408 16.5688 55.9308 15.985 55.3751C15.7015 55.1068 15.4756 54.7836 15.3212 54.4251C15.1669 54.0666 15.0872 53.6804 15.0872 53.2901C15.0872 52.8997 15.1669 52.5135 15.3212 52.155C15.4756 51.7965 15.7015 51.4733 15.985 51.2051L19.88 47.4551C20.4641 46.9019 21.238 46.5936 22.0425 46.5936C22.847 46.5936 23.6209 46.9019 24.205 47.4551C24.4886 47.7233 24.7144 48.0465 24.8688 48.405C25.0232 48.7635 25.1028 49.1497 25.1028 49.5401C25.1028 49.9304 25.0232 50.3166 24.8688 50.6751C24.7144 51.0336 24.4886 51.3568 24.205 51.6251Z"
        fill="#C29477" />
</svg>