<svg width="100" height="100" viewBox="0 0 100 100" fill="none" xmlns="http://www.w3.org/2000/svg">
    <path
        d="M83.7917 48.9583C83.115 48.9613 82.4562 48.7417 81.9167 48.3333L50.4583 24.7499L19 48.3333C18.337 48.8305 17.5035 49.0441 16.6831 48.9268C15.8626 48.8096 15.1223 48.3713 14.625 47.7083C14.1277 47.0452 13.9142 46.2118 14.0314 45.3913C14.1486 44.5708 14.587 43.8305 15.25 43.3333L48.5833 18.3333C49.1243 17.9276 49.7822 17.7083 50.4583 17.7083C51.1345 17.7083 51.7924 17.9276 52.3333 18.3333L85.6667 43.3333C86.2718 43.8247 86.6713 44.5245 86.787 45.2954C86.9026 46.0663 86.726 46.8526 86.2917 47.4999C86.0261 47.929 85.6593 48.2864 85.2234 48.5406C84.7875 48.7949 84.2959 48.9383 83.7917 48.9583Z"
        fill="#C29477" />
    <path
        d="M75.4584 82.2916H25.4584C24.6329 82.2808 23.8443 81.9481 23.2606 81.3644C22.6769 80.7806 22.3442 79.992 22.3334 79.1666V39.5833C22.3334 38.7545 22.6626 37.9596 23.2487 37.3735C23.8347 36.7875 24.6296 36.4583 25.4584 36.4583C26.2872 36.4583 27.082 36.7875 27.6681 37.3735C28.2541 37.9596 28.5834 38.7545 28.5834 39.5833V76.0416H72.3334V39.5833C72.3334 38.7545 72.6626 37.9596 73.2487 37.3735C73.8347 36.7875 74.6296 36.4583 75.4584 36.4583C76.2872 36.4583 77.082 36.7875 77.6681 37.3735C78.2541 37.9596 78.5834 38.7545 78.5834 39.5833V79.1666C78.5726 79.992 78.2399 80.7806 77.6561 81.3644C77.0724 81.9481 76.2838 82.2808 75.4584 82.2916Z"
        fill="#C29477" />
    <path
        d="M58.7917 82.2917C57.9663 82.2809 57.1777 81.9482 56.594 81.3644C56.0102 80.7807 55.6775 79.9921 55.6667 79.1667V53.125H45.2501V79.1667C45.2501 79.9955 44.9208 80.7903 44.3348 81.3764C43.7487 81.9624 42.9539 82.2917 42.1251 82.2917C41.2963 82.2917 40.5014 81.9624 39.9154 81.3764C39.3293 80.7903 39.0001 79.9955 39.0001 79.1667V50C39.0109 49.1746 39.3436 48.386 39.9273 47.8022C40.511 47.2185 41.2996 46.8858 42.1251 46.875H58.7917C59.6172 46.8858 60.4058 47.2185 60.9895 47.8022C61.5732 48.386 61.9059 49.1746 61.9167 50V79.1667C61.9059 79.9921 61.5732 80.7807 60.9895 81.3644C60.4058 81.9482 59.6172 82.2809 58.7917 82.2917Z"
        fill="#C29477" />
</svg>